#!OML:ASF H:\LiuWeirdWalks\Patient Classification 1\Patient 1\Session 1\male.ASF
:FULLY-SPECIFIED
:DEGREES
1180
root 2.75283 18.1013 27.9046 3.45239 1.92679 -7.42412
lowerback 2.60042 -1.01444 -0.926807
upperback -1.288 -1.28902 3.97062
thorax -2.674 -0.591222 4.68758
lowerneck -14.7294 5.85379 13.8445
upperneck 21.6439 7.27001 -10.4071
head 10.2388 3.38404 -5.03636
rclavicle -2.03438e-014 1.19985e-014
rhumerus -35.2533 6.57149 -87.1917
rradius 28.011
rwrist -6.03688
rhand -16.7919 -2.58922
rfingers 7.12502
rthumb 9.43609 -32.358
lclavicle -2.03438e-014 1.19985e-014
lhumerus -52.5474 13.5322 74.7866
lradius 39.1154
lwrist 14.7455
lhand -12.6079 -1.63979
lfingers 7.12502
lthumb 13.4712 27.9046
rfemur 13.0474 -2.01906 27.5814
rtibia 20.4773
rfoot 0.0670732 -5.37487
rtoes -20.2779
lfemur -23.8128 -2.44067 -13.6855
ltibia 25.6225
lfoot -14.2269 7.76979
ltoes -19.5005
1181
root 2.77756 18.105 27.9946 3.59148 1.82766 -7.27215
lowerback 2.68048 -0.775805 -0.649904
upperback -1.35621 -0.961482 3.74106
thorax -2.82588 -0.431248 4.27807
lowerneck -15.2608 5.61509 13.4393
upperneck 21.8645 6.87436 -9.99362
head 10.3318 3.19959 -4.87294
rclavicle -1.85584e-014 -1.18277e-014
rhumerus -35.3467 5.72778 -86.9232
rradius 28.0937
rwrist -6.02978
rhand -16.8708 -2.5228
rfingers 7.12502
rthumb 9.36002 -32.295
lclavicle -1.85584e-014 -1.18277e-014
lhumerus -52.2201 12.6384 75.1924
lradius 39.2212
lwrist 14.8767
lhand -12.6791 -1.79419
lfingers 7.12502
lthumb 13.4025 27.7547
rfemur 13.0567 -2.12897 27.217
rtibia 20.6343
rfoot 0.511951 -5.04067
rtoes -20.3124
lfemur -23.6286 -2.28855 -13.9523
ltibia 25.592
lfoot -13.8652 7.6533
ltoes -19.4953
1182
root 2.80126 18.1093 28.0839 3.73829 1.7369 -7.10122
lowerback 2.71771 -0.623154 -0.545786
upperback -1.42423 -0.755028 3.57356
thorax -2.93642 -0.329396 4.03585
lowerneck -15.6081 5.44325 13.1592
upperneck 22.0125 6.59437 -9.70504
head 10.392 3.07078 -4.76051
rclavicle -9.98582e-015 -1.50579e-014
rhumerus -35.4276 5.13305 -86.7141
rradius 28.1582
rwrist -6.06739
rhand -16.9385 -2.49369
rfingers 7.12502
rthumb 9.2947 -32.2688
lclavicle -9.98582e-015 -1.50579e-014
lhumerus -51.9902 11.9849 75.4984
lradius 39.3233
lwrist 14.9789
lhand -12.734 -1.94347
lfingers 7.12502
lthumb 13.3496 27.6089
rfemur 13.0341 -2.24453 26.8419
rtibia 20.8203
rfoot 0.977271 -4.73224
rtoes -20.3662
lfemur -23.4521 -2.15056 -14.2363
ltibia 25.5456
lfoot -13.4788 7.51786
ltoes -19.5085
1183
root 2.82548 18.1211 28.175 3.87692 1.65265 -6.91527
lowerback 2.7278 -0.511089 -0.511214
upperback -1.47786 -0.606027 3.42978
thorax -3.01002 -0.255604 3.85976
lowerneck -15.9086 5.29659 12.917
upperneck 22.1469 6.35795 -9.46173
head 10.4491 2.9619 -4.66518
rclavicle 1.01598e-014 5.56597e-015
rhumerus -35.4817 4.66055 -86.533
rradius 28.206
rwrist -6.16336
rhand -17.0039 -2.47796
rfingers 7.12502
rthumb 9.23155 -32.2559
lclavicle 1.01598e-014 5.56597e-015
lhumerus -51.7758 11.4391 75.7653
lradius 39.4018
lwrist 15.0458
lhand -12.7811 -2.04214
lfingers 7.12502
lthumb 13.3042 27.5132
rfemur 12.9981 -2.39051 26.4393
rtibia 21.0411
rfoot 1.44642 -4.4166
rtoes -20.4735
lfemur -23.2364 -2.02368 -14.5431
ltibia 25.4651
lfoot -13.0797 7.37713
ltoes -19.5256
1184
root 2.84901 18.1248 28.2636 4.017 1.57528 -6.7452
lowerback 2.57112 -0.681295 -0.917733
upperback -1.46143 -0.850062 3.51187
thorax -2.88094 -0.370667 4.18497
lowerneck -15.8015 5.419 13.0403
upperneck 22.0539 6.53986 -9.59633
head 10.4284 3.04249 -4.70729
rclavicle -3.97569e-016 -1.11071e-014
rhumerus -35.3728 5.10983 -86.587
rradius 28.1992
rwrist -6.37369
rhand -17.0633 -2.51982
rfingers 7.12502
rthumb 9.1743 -32.3003
lclavicle -3.97569e-016 -1.11071e-014
lhumerus -51.7929 11.7584 75.7468
lradius 39.5171
lwrist 15.0736
lhand -12.8187 -2.13609
lfingers 7.12502
lthumb 13.2679 27.4216
rfemur 12.9244 -2.54575 26.0583
rtibia 21.3179
rfoot 1.91491 -4.1191
rtoes -20.6396
lfemur -23.05 -1.89994 -14.8347
ltibia 25.39
lfoot -12.6722 7.24403
ltoes -19.5394
1185
root 2.87317 18.1289 28.3524 4.16807 1.51661 -6.46625
lowerback 2.28244 -0.975776 -1.61834
upperback -1.38388 -1.27006 3.65981
thorax -2.58768 -0.57244 4.74851
lowerneck -15.58 5.65676 13.3157
upperneck 21.8783 6.89834 -9.90356
head 10.3931 3.20043 -4.81166
rclavicle 4.04325e-015 2.76963e-014
rhumerus -35.1393 5.91506 -86.7068
rradius 28.166
rwrist -6.58697
rhand -17.0902 -2.59807
rfingers 7.12502
rthumb 9.1483 -32.3796
lclavicle 4.04325e-015 2.76963e-014
lhumerus -51.8391 12.4222 75.6488
lradius 39.6359
lwrist 15.0892
lhand -12.8283 -2.08021
lfingers 7.12502
lthumb 13.2587 27.4781
rfemur 12.8261 -2.77109 25.5295
rtibia 21.6246
rfoot 2.38589 -3.77456
rtoes -20.8568
lfemur -22.877 -1.80147 -15.262
ltibia 25.3274
lfoot -12.2997 7.12877
ltoes -19.4922
